<?xml version="1.0" standalone="no"?><!DOCTYPE svg PUBLIC "-//W3C//DTD SVG 1.1//EN" "http://www.w3.org/Graphics/SVG/1.1/DTD/svg11.dtd"><svg t="1715521949655" class="icon" viewBox="0 0 1024 1024" version="1.1" xmlns="http://www.w3.org/2000/svg" p-id="1536" xmlns:xlink="http://www.w3.org/1999/xlink" width="200" height="200"><path d="M984 124H753.91l0.59 105.72c0.15 27.61-22.11 50.12-49.72 50.28h-0.28c-27.48 0-49.84-22.2-49.99-49.72l-0.6-106.28h-284l0.59 105.72c0.15 27.61-22.11 50.12-49.72 50.28h-0.28c-27.48 0-49.84-22.2-49.99-49.72l-0.6-106.28H40c-22.09 0-40 17.91-40 40v820c0 22.09 17.91 40 40 40h944c22.09 0 40-17.91 40-40V164c0-22.09-17.91-40-40-40zM592.13 797.74l-360 0.96h-0.14c-27.55 0-49.92-22.3-50-49.87-0.07-27.61 22.25-50.06 49.87-50.13l360-0.96h0.14c27.55 0 49.92 22.3 50 49.87 0.07 27.61-22.25 50.05-49.87 50.13zM792.09 569.3l-560 0.96H232c-27.57 0-49.95-22.33-50-49.91-0.05-27.61 22.3-50.04 49.91-50.09l560-0.96h0.09c27.57 0 49.95 22.33 50 49.91 0.05 27.62-22.3 50.04-49.91 50.09zM370 124H270V50c0-27.61 22.39-50 50-50s50 22.39 50 50v74zM753.09 124h-100V50c0-27.61 22.39-50 50-50s50 22.39 50 50v74z" fill="#231815" p-id="1537"></path></svg>