<?xml version="1.0" standalone="no"?><!DOCTYPE svg PUBLIC "-//W3C//DTD SVG 1.1//EN" "http://www.w3.org/Graphics/SVG/1.1/DTD/svg11.dtd"><svg t="1715500151567" class="icon" viewBox="0 0 1024 1024" version="1.1" xmlns="http://www.w3.org/2000/svg" p-id="888" xmlns:xlink="http://www.w3.org/1999/xlink" width="200" height="200"><path d="M73.142857 512a438.857143 438.857143 0 1 0 877.714286 0 438.857143 438.857143 0 1 0-877.714286 0Z" fill="#12CE3B" p-id="889"></path><path d="M714.605714 449.243429a56.978286 56.978286 0 0 0 4.608-75.702858 46.592 46.592 0 0 0-69.632-4.973714L445.952 562.907429l-73.874286-78.848a44.105143 44.105143 0 0 0-66.121143 0.731428 54.052571 54.052571 0 0 0 0.658286 71.899429l100.644572 107.373714a46.811429 46.811429 0 0 0 13.019428 9.801143c18.285714 14.774857 44.105143 14.189714 61.952-2.779429L714.605714 449.243429z" fill="#FFFFFF" p-id="890"></path></svg>